<?xml version="1.0" encoding="utf-8"?>
<!-- Generator: Adobe Illustrator 24.0.2, SVG Export Plug-In . SVG Version: 6.00 Build 0)  -->
<svg version="1.1" id="Слой_1" xmlns="http://www.w3.org/2000/svg" xmlns:xlink="http://www.w3.org/1999/xlink" x="0px" y="0px"
	 viewBox="0 0 1000 1000" style="enable-background:new 0 0 1000 1000;" xml:space="preserve">
<style type="text/css">
	.st0{fill:#32936F;}
	.st1{fill:#3378EB;}
	.st2{fill:none;stroke:#32936F;stroke-width:4;stroke-miterlimit:10;}
	.st3{fill:#32936F;stroke:#32936F;stroke-miterlimit:10;}
	.st4{fill:#32936F;stroke:#32936F;stroke-width:2;stroke-miterlimit:10;}
	.st5{fill:#32936F;stroke:#32936F;}
</style>
<path class="st0" d="M532.6,616.9v1.4h-15.8c-1.5,0-2.6-0.3-3.3-0.9c-0.6-0.7-0.9-1.7-0.9-3.1v-0.8c-1.9,1.6-4.2,3-7.1,4.1
	c-2.9,1.1-6,1.7-9.5,1.7c-4.8,0-8.3-1-10.4-3c-2.1-2-3.1-5.1-3.1-9.1v-22c0-0.6-0.1-1-0.4-1.2c-0.2-0.2-0.7-0.4-1.5-0.5l-2.7-0.6
	v-1.4l18.9-2.3h1.3v29.5c0,2.3,0.4,4,1.1,5c0.8,1,2.1,1.5,3.8,1.5c3.1,0,6.3-1.3,9.4-3.9v-26c0-0.6-0.1-1-0.4-1.2
	c-0.2-0.2-0.7-0.4-1.5-0.5l-2.7-0.6v-1.4l18.9-2.3h1.3v35.6c0,0.6,0.1,1,0.3,1.2c0.3,0.2,0.8,0.4,1.6,0.5L532.6,616.9z"/>
<path class="st0" d="M582,608.2c0,3.9-1.5,6.7-4.5,8.5c-3,1.7-7.4,2.6-13.4,2.6c-3.2,0-6.5-0.3-10-0.9c-3.4-0.6-6-1.3-7.7-2
	l1.1-10.6h1.3c0.9,4.1,2.6,7.1,5,9c2.4,1.8,5.5,2.7,9.4,2.7c2.5,0,4.2-0.4,5.4-1.1c1.2-0.7,1.8-2,1.8-3.8c0-1.3-0.3-2.3-0.9-3
	c-0.6-0.8-1.6-1.5-3-2.1c-1.3-0.6-3.5-1.5-6.5-2.6c-5-1.8-8.6-3.7-10.8-5.6c-2.1-2-3.2-4.7-3.2-8.1c0-3.9,1.5-6.8,4.4-8.7
	c2.9-1.9,7.3-2.9,13.3-2.9c3,0,6,0.3,8.9,0.9c2.9,0.6,5.2,1.3,6.8,2l-0.9,9.4H577c-1.4-3.5-3.1-6.1-5.1-7.9c-2-1.8-4.8-2.7-8.6-2.7
	c-2.4,0-4.2,0.3-5.5,1c-1.3,0.6-2,1.8-2,3.5c0,1.2,0.3,2.2,0.9,2.9c0.6,0.7,1.6,1.4,2.8,2c1.3,0.6,3.4,1.5,6.4,2.7
	c4.3,1.7,7.5,3.2,9.7,4.4c2.2,1.2,3.8,2.7,4.8,4.3C581.5,603.7,582,605.8,582,608.2z"/>
<path class="st0" d="M626.8,613.8c-3.3,3.6-8.1,5.5-14.5,5.5c-4.3,0-7.4-0.9-9.3-2.7c-1.9-1.8-2.8-4.7-2.8-8.5v-25.6h-5.1v-2
	c1.6,0,2.8-0.1,3.6-0.4c0.8-0.3,1.6-0.7,2.3-1.4l13.9-12.5h0.7v14.3h10.1v2h-10.1v26.2c0,2.5,0.3,4.3,0.9,5.3c0.6,1,1.7,1.5,3.1,1.5
	c1.1,0,2.2-0.2,3-0.7c0.9-0.5,1.8-1.3,2.9-2.4L626.8,613.8z"/>
<path class="st0" d="M681.9,616.3c-0.8-0.2-1.3-0.3-1.6-0.5c-0.2-0.2-0.3-0.6-0.3-1.2V593c0-4.4-1.3-7.7-3.7-10
	c-2.5-2.3-6.7-3.5-12.6-3.5c-4.4,0-8.3,0.5-11.9,1.6c-3.5,1-6.5,2.4-9,4.2l1,1.5c2.1-1.3,4.2-2.3,6.2-2.9c2.1-0.7,4.3-1,6.7-1
	c2.9,0,4.9,0.6,6,2c1.1,1.3,1.7,3.3,1.7,6.2v5.7c-6,0.2-10.9,0.6-14.5,1.4c-3.6,0.8-6.4,2.1-8.3,3.9c-1.9,1.8-2.8,4.3-2.8,7.6
	c0,3.2,0.9,5.6,2.8,7.2c1.9,1.5,4.6,2.3,8,2.3c6.5,0,11.4-1.7,14.9-5.1v0.4c0,1.4,0.3,2.4,0.9,3c0.6,0.6,1.7,0.9,3.1,0.9h16.1v-1.4
	L681.9,616.3z M664.6,611.5c-1.9,1.8-3.9,2.7-6.2,2.7c-1.5,0-2.6-0.4-3.4-1.3c-0.7-0.9-1-2.3-1-4.3c0-2.2,0.3-4,0.8-5.3
	c0.6-1.3,1.6-2.3,3.1-3c1.5-0.7,3.7-1.2,6.6-1.4V611.5z"/>
<path class="st0" d="M711,612.6c0,1.8-0.6,3.3-2,4.5c-1.3,1.3-2.8,1.9-4.6,1.9s-3.4-0.6-4.7-1.9c-1.3-1.3-1.9-2.8-1.9-4.5
	c0-1.8,0.6-3.3,1.9-4.5c1.3-1.2,2.9-1.9,4.7-1.9s3.3,0.6,4.6,1.9C710.3,609.3,711,610.8,711,612.6z"/>
<path class="st0" d="M779,616.9v1.4h-15.8c-1.5,0-2.6-0.3-3.3-0.9c-0.6-0.7-0.9-1.7-0.9-3.1v-0.8c-1.9,1.6-4.2,3-7.1,4.1
	c-2.9,1.1-6,1.7-9.5,1.7c-4.8,0-8.3-1-10.4-3c-2.1-2-3.1-5.1-3.1-9.1v-22c0-0.6-0.1-1-0.4-1.2c-0.2-0.2-0.7-0.4-1.5-0.5l-2.7-0.6
	v-1.4l18.9-2.3h1.3v29.5c0,2.3,0.4,4,1.1,5c0.8,1,2.1,1.5,3.8,1.5c3.1,0,6.3-1.3,9.4-3.9v-26c0-0.6-0.1-1-0.4-1.2
	c-0.2-0.2-0.7-0.4-1.5-0.5l-2.7-0.6v-1.4L773,579h1.3v35.6c0,0.6,0.1,1,0.3,1.2c0.3,0.2,0.8,0.4,1.6,0.5L779,616.9z"/>
<path class="st0" d="M829.8,607.8v10.5h-38.7v-1.6l22.7-34.4h-8.6c-2.4,0-4.2,0.3-5.5,0.8c-1.3,0.5-2.2,1.3-3,2.4
	c-0.7,1.1-1.5,2.8-2.2,5.1H793v-10.2h36.7v1.6L807,616.4h10.6c2.4,0,4.2-0.3,5.5-0.8c1.3-0.5,2.3-1.3,3-2.5c0.7-1.2,1.5-3,2.2-5.3
	H829.8z"/>
<polygon class="st1" points="459.2,450.9 459.2,550.3 436.2,550.3 436.2,509.6 391,509.6 391,550.3 368,550.3 368,450.9 391,450.9 
	391,490.1 436.2,490.1 436.2,450.9 "/>
<polygon class="st1" points="559.7,531.9 559.7,550.3 482.7,550.3 482.7,450.9 557.8,450.9 557.8,469.4 505.6,469.4 505.6,491 
	551.7,491 551.7,508.9 505.6,508.9 505.6,531.9 "/>
<polygon class="st1" points="650.8,531.6 650.8,550.3 578,550.3 578,450.9 601,450.9 601,531.6 "/>
<path class="st1" d="M744.6,467.7c-3.5-5.4-8.5-9.5-14.9-12.4c-6.4-2.9-14.1-4.4-23-4.4h-43v99.4h23v-27.4h20c8.9,0,16.6-1.4,23-4.3
	c6.4-2.9,11.4-7.1,14.9-12.5c3.5-5.4,5.3-11.8,5.3-19.2C749.9,479.5,748.1,473.1,744.6,467.7z M721.3,499.6c-3.5,3-8.8,4.5-15.9,4.5
	h-18.8v-34.5h18.8c7.1,0,12.4,1.5,15.9,4.5c3.5,3,5.3,7.3,5.3,12.8C726.6,492.4,724.8,496.6,721.3,499.6z"/>
<polygon class="st1" points="843.3,531.9 843.3,550.3 766.3,550.3 766.3,450.9 841.4,450.9 841.4,469.4 789.2,469.4 789.2,491 
	835.3,491 835.3,508.9 789.2,509 789.2,531.9 "/>
<path class="st1" d="M927.4,518.5c0.1,0,0.1-0.1,0.2-0.1c6.4-2.8,11.4-6.9,14.9-12.2c3.5-5.4,5.3-11.8,5.3-19.2
	c0-7.5-1.8-13.9-5.3-19.3c-3.5-5.4-8.5-9.5-14.9-12.4c-6.4-2.9-14.1-4.4-23-4.4h-43v99.4h23v-27.7h20c0.4,0,0.7,0,1.1,0l19.1,27.7
	h24.8L927.4,518.5z M919.2,499.8c-3.5,3-8.8,4.5-15.9,4.5h-18.7v-34.6h18.7c7.1,0,12.4,1.5,15.9,4.5c3.5,3,5.3,7.3,5.3,12.8
	C924.5,492.4,922.7,496.7,919.2,499.8z"/>
<path class="st1" d="M397.4,598.6l-149,86.1l-5.2,2.9l-5.8,3.4l-13.3,7.7l-13.2-7.7l-5.9-3.4l-5.2-2.9L74.5,612.3l-5.2-3l-5.8-3.3
	l-13.3-7.7V401.8l13.3-7.7l5.8-3.4l5.2-2.9l124.3-71.8l5.2-3l5.8-3.3l13.3-7.7l13.3,7.7l5.8,3.3l5.2,3l145.8,84.2l-13.3,7.7
	l-145.8-84.2l-5.2-3l-5.8-3.3l-5.8,3.3l-5.2,3L74.5,403l-5.2,3l-5.8,3.4v181.1l5.8,3.3l5.2,3L213.1,677l5.2,2.9l5.8,3.4l5.8-3.3
	l5.2-3l149-86.1L397.4,598.6z"/>
<path class="st1" d="M378.3,587.6l-149,86l-5.2,3l-5.2-3L74.5,590.2l-5.2-2.9V412.8l5.2-3l143.4-82.8l5.2-3l5.2,3l145.8,84.2l-5.2,3
	l-145.8-84.2L74.5,415.8v168.5l149.6,86.4l149-86.1L378.3,587.6z"/>
<path class="st2" d="M288.1,611.6c20.9-20.9,20.9-54.7,0-75.6c-20.9-20.9-54.7-20.9-75.6,0c-20.9,20.9-20.9,54.7,0,75.6
	S267.2,632.5,288.1,611.6z"/>
<path class="st3" d="M242.6,544.3v11.8h2.5v-11.8H242.6z M252.1,544.3v11.8h2.5v-11.8H252.1z M252.1,544.3v11.8h2.5v-11.8H252.1z
	 M242.6,544.3v11.8h2.5v-11.8H242.6z M242.6,544.3v11.8h2.5v-11.8H242.6z M252.1,544.3v11.8h2.5v-11.8H252.1z M252.1,544.3v11.8h2.5
	v-11.8H252.1z M242.6,544.3v11.8h2.5v-11.8H242.6z M242.6,544.3v11.8h2.5v-11.8H242.6z M252.1,544.3v11.8h2.5v-11.8H252.1z
	 M252.1,544.3v11.8h2.5v-11.8H252.1z M242.6,544.3v11.8h2.5v-11.8H242.6z M242.6,544.3v11.8h2.5v-11.8H242.6z M252.1,544.3v11.8h2.5
	v-11.8H252.1z M252.1,544.3v11.8h2.5v-11.8H252.1z M242.6,544.3v11.8h2.5v-11.8H242.6z M242.6,544.3v11.8h2.5v-11.8H242.6z
	 M252.1,544.3v11.8h2.5v-11.8H252.1z M242.6,544.3v11.8h2.5v-11.8H242.6z M252.1,544.3v11.8h2.5v-11.8H252.1z M242.6,544.3v11.8h2.5
	v-11.8H242.6z M252.1,544.3v11.8h2.5v-11.8H252.1z M252.1,544.3v11.8h2.5v-11.8H252.1z M242.6,544.3v11.8h2.5v-11.8H242.6z
	 M252.1,544.3v11.8h2.5v-11.8H252.1z M242.6,544.3v11.8h2.5v-11.8H242.6z M252.1,544.3v11.8h2.5v-11.8H252.1z M242.6,544.3v11.8h2.5
	v-11.8H242.6z M242.6,544.3v11.8h2.5v-11.8H242.6z M252.1,544.3v11.8h2.5v-11.8H252.1z M252.1,544.3v11.8h2.5v-11.8H252.1z
	 M242.6,544.3v11.8h2.5v-11.8H242.6z M242.6,544.3v11.8h2.5v-11.8H242.6z M252.1,544.3v11.8h2.5v-11.8H252.1z M252.1,544.3v11.8h2.5
	v-11.8H252.1z M242.6,544.3v11.8h2.5v-11.8H242.6z M242.6,544.3v11.8h2.5v-11.8H242.6z M252.1,544.3v11.8h2.5v-11.8H252.1z
	 M252.1,544.3v11.8h2.5v-11.8H252.1z M242.6,544.3v11.8h2.5v-11.8H242.6z M242.6,544.3v11.8h2.5v-11.8H242.6z M252.1,544.3v11.8h2.5
	v-11.8H252.1z M242.6,544.3v11.8h2.5v-11.8H242.6z M252.1,544.3v11.8h2.5v-11.8H252.1z"/>
<path class="st4" d="M266,550.7c0-7.3-5.9-13.1-13.1-13.1h-14.6l-2.5,2.5h-1.8c-5.5,0-10,4.1-10.6,9.5h-13v2.5h13
	c0.6,5.3,5.1,9.5,10.6,9.5h1.9l2.4,2.4h4.2l4.1,16.4h-0.8c-3.3,0-6,2.7-6,6v6h1.9l2.5-2.5h-2v-3.5c0-1.9,1.6-3.5,3.5-3.5h5.5
	l2.5-2.5h-4.6l-4.1-16.4v0h9.3l3.2,12.7l2-2l-2.8-11.2C262.1,561.6,266,556.6,266,550.7z M235.3,559h-1.2c-4.5,0-8.2-3.7-8.2-8.2
	c0-4.5,3.7-8.2,8.2-8.2h1.2V559z M253.6,561.3c-0.2,0-0.5,0-0.7,0h-13.6l-1.8-1.8v-17.8l0.2-0.2l1.6-1.6h13.6
	c5.9,0,10.6,4.8,10.6,10.7C263.6,556.3,259.2,561,253.6,561.3z"/>
<path class="st0" d="M239.8,600l11.5-11.5l32.3-32.3c1.1-1.1,2.2-0.6,3.3,0.5l8.8,8.8c1.1,1.1,0.5,1.6-1.1,2.2
	c-1.6,0.5-2.2,1.1-2.2,5.5c0,1.1-3.3,2.2-3.3,2.2c-0.5,0.2-0.9,0.5-1.2,0.8c-0.3,0.4-0.5,0.9-0.5,1.3v2.7c0,0-0.1,1.6-3.8,3.3
	c-0.3,0.2-0.6,0.4-0.8,0.7c-0.2,0.3-0.3,0.6-0.3,1c0,4.4-1.1,4.9-1.1,4.9l-3.3,1.6c0,0-1.1,0.5-1.1,1.1c0,3.3,0,4.9-1.1,5.5
	c0,0-4.4,1.6-4.4,2.7v4.9c0,1.1-1.1,1.6-2.2,1.6h-6v0.5l-8.2,8.2c-0.1,0.1-0.3,0.3-0.4,0.4c-0.2,0.1-0.5,0.2-0.8,0.2
	c-0.3,0-0.6-0.1-0.8-0.2c-0.5-0.2-0.9-0.6-1.2-0.9l-12-12c-0.3-0.2-0.5-0.5-0.7-0.8c-0.2-0.3-0.2-0.7-0.2-1.1c0-0.4,0.1-0.7,0.2-1.1
	C239.3,600.5,239.5,600.2,239.8,600z M276.1,587.9l1.9-0.9c0.1-0.6,0.1-1.1,0.1-1.7c0-0.8,0.2-1.6,0.5-2.3c0.3-0.7,0.8-1.4,1.3-2
	c0.5-0.5,1.1-0.9,1.7-1.2l1.4-0.7v-1.4c0-1,0.2-1.9,0.6-2.8c0.4-0.9,1-1.6,1.8-2.3c0.7-0.6,1.6-1.1,2.6-1.4c0-1.3,0.3-2.7,0.8-3.9
	c0.2-0.5,0.5-1,0.9-1.4l-4.7-4.7l-28,28c2,2,4.7,5,4.7,5s1.6,1.6,1.6,2.7v6.6h3.8v-2.2c0-1.2,0.4-2.3,1.1-3.2
	c0.4-0.5,0.8-0.9,1.3-1.2c0.9-0.7,2-1.2,3-1.7c0-0.2,0-0.2,0-2.1c0-1.1,0.4-2.2,1.1-3.1c0.3-0.4,0.7-0.8,1.2-1.1
	C275.3,588.4,275.7,588.1,276.1,587.9L276.1,587.9z M246.8,604.2l4.6,4.6c0.6,0.6,1.4,0.9,2.3,0.9c0.9,0,1.7-0.4,2.3-1
	c0.6-0.6,1-1.4,1-2.3c0-0.9-0.3-1.7-0.9-2.3l-4.6-4.6c-0.3-0.3-0.7-0.5-1.1-0.7c-0.4-0.2-0.8-0.3-1.3-0.3c-0.4,0-0.9,0.1-1.3,0.3
	c-0.4,0.2-0.8,0.4-1.1,0.7c-0.3,0.3-0.5,0.7-0.7,1.1c-0.2,0.4-0.3,0.8-0.3,1.3c0,0.4,0.1,0.9,0.3,1.3
	C246.2,603.6,246.5,603.9,246.8,604.2z"/>
<path class="st2" d="M178.9,538c20.9-20.9,20.9-54.7,0-75.6c-20.9-20.9-54.7-20.9-75.6,0c-20.9,20.9-20.9,54.7,0,75.6
	C124.2,558.9,158,558.9,178.9,538z"/>
<path class="st5" d="M142.8,487v0.5h0.5h1.9c3,0,5.5,2.3,5.5,5.5v5.7c0,2.9-2.4,5.3-5.4,5.3h-17.6c-1.4,0-2.5,1.2-2.5,2.5v0v0v0v0v0
	v0v0v0v0v0v0v0v0v0v0v0v0v0v0v0v0v0v0v0v0v0v0v0v0v0v0v0v0v0v0v0v0v0v0v0v0v0v0v0v0v0v0v0v0v0v0v0v0v0v0v0v0v0v0v0v0v0v0v0v0v0v0v0
	v0v0v0v0v0v0v0v0v0v0v0v0v0v0v0v0v0v0v0v0v0v0v0v0v0v0v0v0v0v0v0v0v0v0v0v0v0v0v0v0v0v0v0v0v0v0v0v0v0v0v0v0v0v0v0v0v0v0v0v0v0v0v0
	v0v0v0v0v0v0v0v0v0v0v0v0v0v0v0v0v0v0v0v0v0v0v0v0v0v0v0v0v0v0v0v0v0v0v0v0v0v0v0v0v0v0v0v0v0v0v0v0v0v0v0v0v0v0v0v0v0v0v0v0v0v0v0
	v0v0v0v0v0v0v0v0v0v0v0v0v0v0v0v0v0v0v0v0v0v0v0v0v0v0v0v0v0v0v0v0v0v0v0v0v0v0v0v0v0v0v0v0v0v0v0v0v0v0v0v0v0v0v0v0v0v0v0v0v0v0v0
	v0v0v0v0v0v0v0v0v0v0v0v0v0v0v0v0v0v0v0v0v0v0v0v0v0v0v0v0v0v0v0v0v0v0v0v0v0v0v0v0v0v0v0v0v0v0v0v0v0v0v0v0v0v0v0v0v0v0v0v0v0v0v0
	v0v0v0v0v0v0v0v0v0v0v0v0v0v0v0v0v0v0v0v0v0v0v0v0v0v0v0v0v0v0v0v0v0v0v0v0v0v0v0v0v0v0v0v0v0v0v0v0v0v0v0v0v0v0v0v0v0v0v0v0v0v0v0
	v0v0v0v0v0v0v0v0v0v0v0v0v0v0v0v0v0v0v0v0v0v0v0v0v0v0v0v0v0v0v0v0v0v0v0v0v0v0v0v0v0v0v0v0v0v0v0v0v0v0v0v0v0v0v0v0v0v0v0v0v0v0v0
	v0v0v0v0v0v0v0v0v0v0v0v0v0v0v0v0v0v0v0v0v0v0v0v0v0v0v0v0v0v0v0v0v0v0v0v0v0v0v0v0v0v0v0v0v0v0v0v0v0v0v0l0,0v0v0v0v0l0,0v0v0v0
	l0,0v0v0l0,0v0l0,0v0.4l0.3,0.1c2,0.7,3.5,2.7,3.5,4.9v12.9h-10.7v-12.9c0-2.2,1.4-4.2,3.5-4.9l0.3-0.1v-0.4v-2.2
	c0-2.9,2.4-5.3,5.4-5.3h17.7c1.4,0,2.5-1.2,2.5-2.5V493c0-1.4-1.2-2.5-2.5-2.5h-1.9h-0.5v0.5v5.2h-37.2c-0.5,0-0.9-0.4-0.9-0.9
	v-12.4c0-0.6,0.4-1,1-1h37V487z M139.9,493.3l0.1-8.2l0-0.5h-0.5h-30.6c-0.8,0-1.3,0.6-1.3,1.3v6c0,0.9,0.7,1.5,1.6,1.5H139.9
	 M139.4,492.8 M125.7,523.9h0.5v-0.5v-9.6c0-1.4-1.2-2.5-2.7-2.4l0,0l0,0c-1.3,0.1-2.2,1.3-2.2,2.6v9.4v0.5h0.5H125.7z"/>
<path class="st0" d="M173.6,505.6l-6.3-3.2c0.9-5.1,2.2-13,2.2-14.3c0-3.7-3-6.7-6.7-6.7s-6.7,3-6.7,6.7c0,1.3,1.3,9.2,2.2,14.3
	l-6.3,3.2c-2.3,1.1-3.7,3.4-3.7,6v16.7h29v-16.7C177.2,509.1,175.8,506.8,173.6,505.6z M162.7,485.8c1.2,0,2.2,1,2.2,2.2
	c0,0.8-1,7.1-2.2,14.3c-1.3-7.2-2.2-13.5-2.2-14.3C160.5,486.8,161.5,485.8,162.7,485.8z M153.9,509.6l8.8-4.5l8.8,4.5
	c0.4,0.2,0.7,0.5,0.9,0.8H153C153.2,510.1,153.6,509.8,153.9,509.6L153.9,509.6z M160.8,523.9l-2.5-6.7l-2.5,6.7h-3.1v-9h20.1v9
	H160.8z"/>
<path class="st2" d="M288.3,459.5c20.9-20.9,20.9-54.7,0-75.5c-20.9-20.9-54.7-20.9-75.5,0c-20.9,20.9-20.9,54.7,0,75.5
	C233.6,480.3,267.5,480.3,288.3,459.5z"/>
<path class="st0" d="M268.6,422.1c-0.9,0.8-1.8,1.5-2.9,2l-11.4-11.4c0.5-1,1.1-2,2-2.9c1.2-1.2,3.1-1.3,4.2-0.1
	c1.1,1.1,1.1,3-0.1,4.2c-1.2,1.2-1.3,3.1-0.1,4.2c1.1,1.1,3,1.1,4.2-0.1s3.1-1.3,4.2-0.1C269.9,419,269.8,420.9,268.6,422.1z"/>
<path class="st0" d="M253.4,439.3c-2.8,0.5-5.6,1.5-8.2,3l-2.6-2.6l6.3-6.3l-4.1-4.1l-6.3,6.3l-2.7-2.7c2.3-4.2,3.5-8.8,3.5-13.5
	c0-0.4,0-0.8,0-1.2l-5.9-0.5c-0.1,0.7-0.1,1.4-0.1,2.1c0.2,5.2-1.9,10.4-5.6,14.3l-0.3,0.4c-4.4,4.4-4.7,11.4-0.5,15.6l1.3,1.3
	c4.2,4.2,11.2,3.9,15.6-0.5l1.2-1.2c3.4-3.3,8.1-5.1,12.7-4.8c0.5,0,0.9,0,1.4,0L253.4,439.3z M239.7,446.9c-2,2-5.2,2.1-7.1,0.2
	l-1.3-1.3c-1.9-1.9-1.8-5.1,0.2-7.1c0,0,0.6-0.6,0.7-0.7l8.2,8.2L239.7,446.9z"/>
<path class="st0" d="M287.1,419c-0.6,6.5-3.5,12.4-7.8,16.9l-4.1-4.1c3.9-4.1,6.2-9.7,6.1-15.6c-0.1-5.1-2.1-9.9-5.6-13.4
	c-0.6-0.6-1.2-1.1-1.8-1.6c-3.8-2.9-8.6-4.4-13.6-4c-5.6,0.4-10.7,2.9-14.5,6.8v-7.6c4.1-2.9,8.9-4.7,13.9-5.1
	c14.9-1.3,27.2,9.6,27.6,24.4l0,0C287.2,416.8,287.2,417.9,287.1,419z"/>
<path class="st0" d="M279.1,439.6L259.5,420l-3.6,3.6l-12.8-12.8v-10.7l-15.1-8.7l-7.8,7.8l8.7,15.1h10.6l12.8,12.8l-3.7,3.6
	l19.6,19.6c1.5,1.5,3.4,2.2,5.4,2.2c1.9,0,4-0.8,5.4-2.2C282.2,447.4,282.2,442.5,279.1,439.6z M237.9,409.1h-6.2l-5.2-9.1l2.3-2.3
	l9.1,5.2V409.1z M275.6,446.7c-1,1-2.6,1-3.6,0l-16.1-16.1l3.6-3.6l16.1,16.1C276.5,444.1,276.5,445.8,275.6,446.7z"/>
</svg>
