<?xml version="1.0" encoding="utf-8"?>
<!-- Generator: Adobe Illustrator 24.0.2, SVG Export Plug-In . SVG Version: 6.00 Build 0)  -->
<svg version="1.1" id="Слой_1" xmlns="http://www.w3.org/2000/svg" xmlns:xlink="http://www.w3.org/1999/xlink" x="0px" y="0px"
	 viewBox="0 0 1000 1000" style="enable-background:new 0 0 1000 1000;" xml:space="preserve">
<style type="text/css">
	.st0{fill:#3378EB;}
	.st1{fill:none;stroke:#32936F;stroke-width:12;stroke-miterlimit:10;}
	.st2{fill:#32936F;stroke:#32936F;stroke-miterlimit:10;}
	.st3{fill:#32936F;stroke:#32936F;stroke-width:3;stroke-miterlimit:10;}
	.st4{fill:#32936F;}
	.st5{fill:#32936F;stroke:#32936F;stroke-width:2;}
</style>
<path class="st0" d="M916.4,728.8L568,930.2l-12.2,6.7l-13.5,8l-31.2,18l-30.8-18l-13.8-8l-12.2-6.7L161.4,761l-12.2-7.1l-13.5-7.7
	l-31.1-18V268.7l31.1-18l13.5-8l12.2-6.7L452.1,68l12.2-7.1l13.5-7.7l31.1-18l31.1,18l13.5,7.7l12.2,7.1l341,196.9l-31.1,18
	l-341-196.9l-12.2-7.1l-13.5-7.7l-13.5,7.7l-12.2,7.1L161.4,271.6l-12.2,7.1l-13.5,8v423.6l13.5,7.7l12.2,7.1l324,187.2l12.2,6.7
	l13.5,8l13.5-7.7l12.2-7.1l348.4-201.3L916.4,728.8z"/>
<path class="st0" d="M871.8,703.2l-348.4,201l-12.2,7.1l-12.2-7.1L161.4,709.3l-12.2-6.7V294.4l12.2-7.1L496.7,93.7l12.2-7.1
	l12.2,7.1l341,196.9l-12.2,7.1l-341-196.9L161.4,301.4v394l349.7,202l348.4-201.3L871.8,703.2z"/>
<path class="st1" d="M660.9,759.3c48.8-48.8,48.8-127.9,0-176.7c-48.8-48.8-127.9-48.8-176.7,0c-48.8,48.8-48.8,127.9,0,176.7
	C533,808.1,612.1,808.1,660.9,759.3z"/>
<path class="st2" d="M554.6,601.8v27.7h5.8v-27.7H554.6z M576.7,601.8v27.7h5.8v-27.7H576.7z M576.7,601.8v27.7h5.8v-27.7H576.7z
	 M554.6,601.8v27.7h5.8v-27.7H554.6z M554.6,601.8v27.7h5.8v-27.7H554.6z M576.7,601.8v27.7h5.8v-27.7H576.7z M576.7,601.8v27.7h5.8
	v-27.7H576.7z M554.6,601.8v27.7h5.8v-27.7H554.6z M554.6,601.8v27.7h5.8v-27.7H554.6z M576.7,601.8v27.7h5.8v-27.7H576.7z
	 M576.7,601.8v27.7h5.8v-27.7H576.7z M554.6,601.8v27.7h5.8v-27.7H554.6z M554.6,601.8v27.7h5.8v-27.7H554.6z M576.7,601.8v27.7h5.8
	v-27.7H576.7z M576.7,601.8v27.7h5.8v-27.7H576.7z M554.6,601.8v27.7h5.8v-27.7H554.6z M554.6,601.8v27.7h5.8v-27.7H554.6z
	 M576.7,601.8v27.7h5.8v-27.7H576.7z M554.6,601.8v27.7h5.8v-27.7H554.6z M576.7,601.8v27.7h5.8v-27.7H576.7z M554.6,601.8v27.7h5.8
	v-27.7H554.6z M576.7,601.8v27.7h5.8v-27.7H576.7z M576.7,601.8v27.7h5.8v-27.7H576.7z M554.6,601.8v27.7h5.8v-27.7H554.6z
	 M576.7,601.8v27.7h5.8v-27.7H576.7z M554.6,601.8v27.7h5.8v-27.7H554.6z M576.7,601.8v27.7h5.8v-27.7H576.7z M554.6,601.8v27.7h5.8
	v-27.7H554.6z M554.6,601.8v27.7h5.8v-27.7H554.6z M576.7,601.8v27.7h5.8v-27.7H576.7z M576.7,601.8v27.7h5.8v-27.7H576.7z
	 M554.6,601.8v27.7h5.8v-27.7H554.6z M554.6,601.8v27.7h5.8v-27.7H554.6z M576.7,601.8v27.7h5.8v-27.7H576.7z M576.7,601.8v27.7h5.8
	v-27.7H576.7z M554.6,601.8v27.7h5.8v-27.7H554.6z M554.6,601.8v27.7h5.8v-27.7H554.6z M576.7,601.8v27.7h5.8v-27.7H576.7z
	 M576.7,601.8v27.7h5.8v-27.7H576.7z M554.6,601.8v27.7h5.8v-27.7H554.6z M554.6,601.8v27.7h5.8v-27.7H554.6z M576.7,601.8v27.7h5.8
	v-27.7H576.7z M554.6,601.8v27.7h5.8v-27.7H554.6z M576.7,601.8v27.7h5.8v-27.7H576.7z"/>
<path class="st3" d="M609.3,616.9c0-17-13.7-30.7-30.7-30.7h-34.1l-5.8,5.8h-4.2c-12.8,0-23.4,9.7-24.8,22.1h-30.4v5.8h30.4
	c1.4,12.5,12,22.1,24.8,22.1h4.4l5.6,5.6h9.9l9.5,38.4h-1.8c-7.7,0-13.9,6.3-13.9,14v14h4.6l5.8-5.8H554v-8.2c0-4.5,3.7-8.2,8.2-8.2
	h12.8l5.8-5.8h-10.8l-9.6-38.4v0H582l7.4,29.8l4.8-4.8l-6.6-26.3C600.2,642.4,609.3,630.7,609.3,616.9z M537.4,636.2h-2.9
	c-10.6,0-19.2-8.6-19.2-19.2c0-10.6,8.6-19.2,19.2-19.2h2.9V636.2z M580.3,641.7c-0.5,0-1.1,0-1.6,0h-31.8l-4.1-4.1V596l0.4-0.4
	l3.7-3.7h31.8c13.7,0,24.9,11.2,24.9,24.9C603.5,630.1,593.3,640.9,580.3,641.7z"/>
<path class="st4" d="M548,732.2l26.8-26.8l75.5-75.5c2.6-2.6,5.1-1.3,7.7,1.3l20.5,20.5c2.6,2.6,1.3,3.8-2.6,5.1
	c-3.8,1.3-5.1,2.6-5.1,12.8c0,2.6-7.7,5.1-7.7,5.1c-1.1,0.4-2,1.1-2.7,2c-0.7,0.9-1.1,2-1.1,3.1v6.4c0,0-0.2,3.8-9,7.7
	c-0.7,0.4-1.3,0.9-1.8,1.6c-0.4,0.7-0.7,1.4-0.8,2.3c0,10.2-2.6,11.5-2.6,11.5l-7.7,3.8c0,0-2.6,1.3-2.6,2.6c0,7.7,0,11.5-2.6,12.8
	c0,0-10.2,3.9-10.2,6.4v11.5c0,2.6-2.6,3.8-5.1,3.8H603v1.3l-19.2,19.2c-0.3,0.3-0.7,0.6-1,0.8c-0.6,0.3-1.2,0.5-1.9,0.6
	c-0.7,0-1.3-0.1-1.9-0.5c-1.1-0.6-2-1.3-2.9-2.2L548,741.2c-0.7-0.5-1.2-1.2-1.6-2c-0.4-0.8-0.6-1.6-0.6-2.5c0-0.9,0.2-1.7,0.6-2.5
	C546.8,733.4,547.3,732.8,548,732.2z M632.9,703.9l4.4-2.2c0.1-1.3,0.2-2.7,0.2-4c0-1.9,0.4-3.7,1.1-5.5c0.7-1.7,1.8-3.3,3.1-4.6
	c1.1-1.2,2.5-2.1,3.9-2.9l3.3-1.7v-3.2c0-2.3,0.5-4.5,1.5-6.6c1-2.1,2.4-3.9,4.2-5.3c1.8-1.5,3.8-2.6,6-3.3c0.1-3.1,0.7-6.2,1.9-9.1
	c0.5-1.2,1.2-2.3,2-3.3l-11.1-11.1l-65.4,65.4c4.7,4.6,11,11.6,11,11.6s3.9,3.8,3.8,6.4v15.3h9v-5.1c0-2.7,1-5.3,2.7-7.4
	c0.9-1.1,1.9-2,3-2.9c2.2-1.6,4.6-2.9,7.1-4c0-0.5,0-0.6,0-4.9c0-2.7,1-5.3,2.6-7.3c0.8-1,1.7-1.9,2.7-2.6
	C631,705,631.9,704.4,632.9,703.9L632.9,703.9z M564.3,742.1l10.9,10.8c1.4,1.4,3.4,2.2,5.4,2.2c2,0,3.9-0.8,5.4-2.2
	c1.4-1.4,2.2-3.3,2.2-5.4c0-2-0.8-3.9-2.2-5.4l-10.8-10.8c-0.7-0.7-1.6-1.3-2.5-1.7c-0.9-0.4-1.9-0.6-2.9-0.6c-1,0-2,0.2-2.9,0.6
	c-0.9,0.4-1.8,1-2.5,1.7c-0.7,0.7-1.3,1.6-1.7,2.5c-0.4,0.9-0.6,1.9-0.6,2.9s0.2,2,0.6,2.9C563,740.6,563.6,741.4,564.3,742.1z"/>
<path class="st1" d="M405.5,587.2c48.8-48.8,48.8-127.9,0-176.7c-48.8-48.8-127.9-48.8-176.7,0c-48.8,48.8-48.8,127.9,0,176.7
	C277.6,636,356.7,636,405.5,587.2z"/>
<path class="st5" d="M321.2,468v1.2h1.2h4.5c7.1,0,12.8,5.5,12.8,12.7v13.3c0,6.8-5.5,12.3-12.6,12.3h-41.1c-3.4,0-5.9,2.7-5.9,5.8
	v0v0v0v0v0v0v0v0v0v0v0v0v0v0v0v0v0v0v0v0v0v0v0v0v0v0v0v0v0v0v0v0v0v0v0v0v0v0v0v0v0v0v0v0v0v0v0v0v0v0v0v0v0v0v0v0v0v0v0v0v0v0v0
	v0v0v0v0v0v0v0v0v0v0v0v0v0v0v0v0v0v0v0v0v0v0v0v0v0v0v0v0v0v0v0v0v0v0v0v0v0v0v0v0v0v0v0v0v0v0v0v0v0v0v0v0v0v0v0v0v0v0v0v0v0v0v0
	v0v0v0v0v0v0v0v0v0v0v0v0v0v0v0v0v0v0v0v0v0v0v0v0v0v0v0v0v0v0v0v0v0v0v0v0v0v0v0v0v0v0v0v0v0v0v0v0v0v0v0v0v0v0v0v0v0v0v0v0v0v0v0
	v0v0v0v0v0v0v0v0v0v0v0v0v0v0v0v0v0v0v0v0v0v0v0v0v0v0v0v0v0v0v0v0v0v0v0v0v0v0v0v0v0v0v0v0v0v0v0v0v0v0v0v0v0v0v0v0v0v0v0v0v0v0v0
	v0v0v0v0v0v0v0v0v0v0v0v0v0v0v0v0v0v0v0v0v0v0v0v0v0v0v0v0v0v0v0v0v0v0v0v0v0v0v0v0v0v0v0v0v0v0v0v0v0v0v0v0v0v0v0v0v0v0v0v0v0v0v0
	v0v0v0v0v0v0v0v0v0v0v0v0v0v0v0v0v0v0v0v0v0v0v0v0v0v0v0v0v0v0v0v0v0v0v0v0v0v0v0v0v0v0v0v0v0v0v0v0v0v0v0v0v0v0v0v0v0v0v0v0v0v0v0
	v0v0v0v0v0v0v0v0v0v0v0v0v0v0v0v0v0v0v0v0v0v0v0v0v0v0v0v0v0v0v0v0v0v0v0v0v0v0v0v0v0v0v0v0v0v0v0v0v0v0v0v0v0v0v0v0v0v0v0v0v0v0v0
	v0v0v0v0v0v0v0v0v0v0v0v0v0v0v0v0v0v0v0v0v0v0v0v0v0v0v0v0v0v0v0v0v0v0v0v0v0v0v0v0v0v0v0v0v0v0v0v0v0v0v0v0v0v0v0v0l0,0v0v0v0v0
	l0,0v0v0v0l0,0v0v0l0,0v0l0,0v0.8l0.8,0.3c4.7,1.6,8.2,6.3,8.2,11.5v30.2h-25v-30.2c0-5.2,3.3-9.9,8.2-11.5l0.8-0.3v-0.8v-5.1
	c0-6.8,5.5-12.3,12.6-12.3h41.3c3.4,0,5.9-2.7,5.9-5.8v-13.3c0-3.4-2.8-5.8-5.9-5.8h-4.5h-1.2v1.2v12.1h-87.1c-1.2,0-2.2-1-2.2-2.1
	v-28.9c0-1.3,1-2.4,2.4-2.4h86.6V468z M314.3,482.6l0.2-19.3l0-1.2h-1.2h-71.5c-1.8,0-3,1.5-3,2.9V479c0,2,1.7,3.6,3.7,3.6H314.3
	 M313.1,481.4 M281.1,554.2h1.2V553v-22.5c0-3.4-2.9-5.9-6.2-5.6l0,0l0,0c-2.9,0.3-5.1,3.1-5.1,6V553v1.2h1.2H281.1z"/>
<path class="st4" d="M393.1,511.5l-14.8-7.6c2.1-12,5.1-30.5,5.1-33.5c0-8.7-7-15.7-15.6-15.7s-15.6,7-15.6,15.7
	c0,3.1,3,21.6,5.1,33.5l-14.8,7.6c-5.3,2.7-8.6,8-8.6,14v39.1h67.8v-39.1C401.7,519.6,398.4,514.2,393.1,511.5z M367.8,465.2
	c2.9,0,5.2,2.3,5.2,5.2c-0.1,1.9-2.3,16.6-5.2,33.5c-3-16.9-5.1-31.6-5.2-33.4C362.6,467.5,364.9,465.2,367.8,465.2z M347.2,520.8
	l20.6-10.5l20.6,10.5c0.9,0.4,1.6,1.1,2.1,1.9h-45.4C345.6,521.9,346.3,521.3,347.2,520.8L347.2,520.8z M363.2,554.1l-5.9-15.7
	l-5.9,15.7h-7.2v-20.9h46.9v20.9H363.2z"/>
<path class="st1" d="M661.4,403.6c48.8-48.8,48.8-127.9,0-176.7c-48.8-48.8-127.9-48.8-176.7,0c-48.8,48.8-48.8,127.9,0,176.7
	C533.6,452.3,612.7,452.3,661.4,403.6z"/>
<path class="st4" d="M615.3,316.1c-2,2-4.3,3.5-6.7,4.6L582,294.1c1.1-2.4,2.6-4.7,4.6-6.7c2.8-2.8,7.3-3,9.9-0.3
	c2.6,2.6,2.5,7.1-0.3,9.9s-3,7.2-0.3,9.9c2.6,2.6,7.1,2.5,9.9-0.3c2.8-2.8,7.3-3,9.9-0.3S618.2,313.3,615.3,316.1z"/>
<path class="st4" d="M579.8,356.5c-6.6,1.1-13.1,3.5-19.1,7l-6-6l14.7-14.7l-9.6-9.6L545.1,348l-6.3-6.3c5.5-9.8,8.2-20.7,8.1-31.5
	c0-0.9,0-1.8,0.1-2.8l-13.9-1.2c-0.1,1.6-0.2,3.3-0.2,4.9c0.4,12.2-4.3,24.4-13.1,33.5l-0.8,0.8c-10.4,10.4-10.9,26.7-1.2,36.5l3,3
	c9.8,9.7,26.1,9.2,36.5-1.2l2.8-2.8c8.1-7.8,18.9-11.8,29.7-11.2c1.1,0,2.2,0,3.3,0L579.8,356.5z M547.7,374.2
	c-4.8,4.8-12.2,5-16.7,0.5l-3-3c-4.5-4.5-4.2-11.9,0.5-16.7c0,0,1.3-1.4,1.5-1.6l19.2,19.2L547.7,374.2z"/>
<path class="st4" d="M658.6,309c-1.5,15.2-8.3,29-18.3,39.6l-9.6-9.6c9-9.7,14.5-22.7,14.2-36.5c-0.2-12-4.9-23.1-13.2-31.3
	c-1.3-1.3-2.7-2.6-4.2-3.7c-8.9-6.9-20.1-10.2-31.7-9.5c-13.1,0.9-25,6.8-33.8,15.8v-17.7c9.7-6.8,20.9-11,32.4-12
	c34.8-3.1,63.6,22.5,64.5,57.2l0,0C658.9,303.9,658.8,306.4,658.6,309z"/>
<path class="st4" d="M639.9,357.1L594,311.2l-8.4,8.4l-29.9-29.9v-25l-35.3-20.2l-18.3,18.3l20.2,35.3h24.7l29.9,29.9l-8.7,8.3
	l45.9,45.9c3.5,3.5,8,5.1,12.5,5.1c4.5,0,9.3-1.9,12.5-5.1C647,375.4,647,363.9,639.9,357.1z M543.6,285.8h-14.5l-12.2-21.2l5.5-5.5
	l21.2,12.2V285.8z M631.6,373.8c-2.2,2.2-6.1,2.2-8.4,0l-37.6-37.6l8.4-8.3l37.6,37.6C633.8,367.7,633.8,371.6,631.6,373.8z"/>
</svg>
